<svg id="Livello_1" data-name="Livello 1" xmlns="http://www.w3.org/2000/svg" xmlns:xlink="http://www.w3.org/1999/xlink" viewBox="0 0 483.11 158.41">
  <defs>
    <style>
      .cls-1 {
        fill: none;
      }

      .cls-2 {
        clip-path: url(#clip-path);
      }

      .cls-3 {
        fill: #1c2b39;
      }

      .cls-4 {
        fill: #00a0af;
      }

      .cls-5 {
        opacity: 0.1;
      }

      .cls-6 {
        clip-path: url(#clip-path-3);
      }

      .cls-7 {
        fill: #4cb058;
      }
    </style>
    <clipPath id="clip-path" transform="translate(-183.84 -211.93)">
      <rect class="cls-1" width="841.89" height="595.28"/>
    </clipPath>
    <clipPath id="clip-path-3" transform="translate(-183.84 -211.93)">
      <rect class="cls-1" x="369.95" y="266.14" width="273.06" height="87.72"/>
    </clipPath>
  </defs>
  <g class="cls-2">
    <g class="cls-2">
      <path class="cls-3" d="M243,337.3l4.4,6.24a43.53,43.53,0,0,1-12,6.69A38.56,38.56,0,0,1,222,352.7a39.13,39.13,0,0,1-19.7-4.95,35.38,35.38,0,0,1-13.56-13.47,38,38,0,0,1-4.86-19.15,36.67,36.67,0,0,1,5.13-19,38.2,38.2,0,0,1,13.93-13.84,37.54,37.54,0,0,1,19.25-5.13q12.45,0,21.26,7.33t12.83,19.79L195,328a29.44,29.44,0,0,0,27.13,17.23A31.58,31.58,0,0,0,243,337.3m-36.29-48.75a28.84,28.84,0,0,0-10.63,10.91,30.72,30.72,0,0,0-3.85,15.3,28,28,0,0,0,.73,6.78l52.79-20.71A30.25,30.25,0,0,0,236.08,289a24.18,24.18,0,0,0-14.48-4.49,28.5,28.5,0,0,0-14.85,4" transform="translate(-183.84 -211.93)"/>
      <polygon class="cls-3" points="156.35 67.64 120.79 142.05 119.69 142.05 83.4 67.64 93.48 67.64 120.61 126.65 146.82 67.64 156.35 67.64"/>
      <path class="cls-3" d="M358.79,296a36.88,36.88,0,0,1,13.84-13.74,40,40,0,0,1,38.86,0A36.29,36.29,0,0,1,425.24,296a37.84,37.84,0,0,1,4.94,19,37.33,37.33,0,0,1-18.78,32.72,38.3,38.3,0,0,1-19.53,5,39.37,39.37,0,0,1-19.52-4.86,35.2,35.2,0,0,1-13.65-13.47,38.28,38.28,0,0,1-4.95-19.43,37.23,37.23,0,0,1,5-19m7.52,34.37a29.4,29.4,0,0,0,10.72,11,29.36,29.36,0,0,0,29.69,0,29.4,29.4,0,0,0,10.72-11,30.35,30.35,0,0,0,3.95-15.21,30.88,30.88,0,0,0-3.95-15.31,29.22,29.22,0,0,0-10.72-11.09,28.6,28.6,0,0,0-14.85-4,27.46,27.46,0,0,0-15,4.31,30.82,30.82,0,0,0-10.64,11.27,31,31,0,0,0,.1,30.06" transform="translate(-183.84 -211.93)"/>
      <rect class="cls-3" x="272.01" width="8.61" height="139.3"/>
      <polygon class="cls-3" points="375.01 67.64 339.45 142.05 338.36 142.05 302.07 67.64 312.15 67.64 339.27 126.65 365.48 67.64 375.01 67.64"/>
      <path class="cls-3" d="M577.46,296a36.92,36.92,0,0,1,13.83-13.74,40,40,0,0,1,38.86,0A36.22,36.22,0,0,1,643.9,296a37.75,37.75,0,0,1,5,19,37.31,37.31,0,0,1-18.79,32.72,38.23,38.23,0,0,1-19.52,5A39.34,39.34,0,0,1,591,347.84a35.16,35.16,0,0,1-13.66-13.47,38.38,38.38,0,0,1-4.94-19.43,37.13,37.13,0,0,1,5-19M585,330.34a29.48,29.48,0,0,0,10.72,11,29.38,29.38,0,0,0,29.7,0,29.48,29.48,0,0,0,10.72-11,30.44,30.44,0,0,0,3.94-15.21,31,31,0,0,0-3.94-15.31,29.29,29.29,0,0,0-10.72-11.09,28.6,28.6,0,0,0-14.85-4,27.47,27.47,0,0,0-15,4.31,30.88,30.88,0,0,0-10.63,11.27,30.95,30.95,0,0,0,.09,30.06" transform="translate(-183.84 -211.93)"/>
      <path class="cls-3" d="M398.21,315.09a6.76,6.76,0,1,1-6.76-6.77,6.76,6.76,0,0,1,6.76,6.77" transform="translate(-183.84 -211.93)"/>
      <path class="cls-3" d="M618.1,315.09a6.77,6.77,0,1,1-6.77-6.77,6.77,6.77,0,0,1,6.77,6.77" transform="translate(-183.84 -211.93)"/>
      <path class="cls-4" d="M584.16,275.93a.57.57,0,0,1-.2.69.59.59,0,0,1-.73,0L576.9,273l4.29,7a.41.41,0,0,1-.15.6c-.24.17-.44.15-.57-.09L575.89,273a.55.55,0,0,1,.15-.85.74.74,0,0,1,1,0l6.35,3.55-1.29-7.16a.75.75,0,0,1,.28-.91c.35-.25.58-.16.84.15l5.66,6.79c.18.2.14.39-.1.57a.41.41,0,0,1-.62-.05l-5.24-6.33Z" transform="translate(-183.84 -211.93)"/>
      <path class="cls-4" d="M596.41,261.54c2.68-.75,5,.67,5.8,3.57s-.4,5.32-3.07,6.08-5-.67-5.79-3.58.39-5.31,3.06-6.07m2.51,8.88c2.11-.6,3.05-2.6,2.36-5s-2.53-3.66-4.65-3.06-3,2.59-2.36,5,2.53,3.65,4.65,3.06" transform="translate(-183.84 -211.93)"/>
      <path class="cls-4" d="M616.14,266.83c0,1.59-1.33,2.66-4.07,2.58a8.54,8.54,0,0,1-1.6-.18c-.51-.13-.51-.37-.5-.73l.24-8.17c0-.37,0-.58.54-.7a7.72,7.72,0,0,1,1.61-.09c2.42.07,3.58,1,3.54,2.54a2.24,2.24,0,0,1-2.13,2.19c1.57.31,2.4,1.24,2.37,2.56m-1-.07a1.86,1.86,0,0,0-1.39-1.87,5.22,5.22,0,0,0-1.45-.25l-1.34,0-.11,3.88a9.81,9.81,0,0,0,1.24.13c2.2.06,3-.72,3-1.85m-4.06-6.36-.1,3.46,1.31,0a4.31,4.31,0,0,0,1.34-.16,1.68,1.68,0,0,0,1.27-1.6c0-1-.74-1.74-2.63-1.8a8,8,0,0,0-1.19.06" transform="translate(-183.84 -211.93)"/>
      <path class="cls-4" d="M623.57,270.59c-.07.26-.24.35-.53.28s-.41-.25-.35-.51l2.28-8.71c.07-.26.25-.35.55-.27s.4.24.33.5Z" transform="translate(-183.84 -211.93)"/>
      <path class="cls-4" d="M634.81,274.67a.41.41,0,0,1-.37.73l-3.71-1.87a.43.43,0,0,1-.22-.66l4-7.89c.12-.24.32-.29.59-.15s.34.32.22.56L631.47,273Z" transform="translate(-183.84 -211.93)"/>
      <path class="cls-4" d="M640.91,279.59a.37.37,0,0,1-.6,0c-.24-.2-.27-.4-.11-.6l5.68-7c.17-.2.37-.22.61,0s.26.38.09.59Z" transform="translate(-183.84 -211.93)"/>
      <path class="cls-4" d="M648.23,287.22c-.21.16-.4.12-.6-.12s-.17-.45,0-.61l6.73-5.23L652.6,279a.41.41,0,0,1,.65-.5l4.15,5.35a.36.36,0,0,1-.07.57.35.35,0,0,1-.57-.07L655,282Z" transform="translate(-183.84 -211.93)"/>
      <path class="cls-4" d="M664,297.84a.59.59,0,0,1,.57.42c.11.28.07.43-.07.49a1.19,1.19,0,0,1-.58,0l-6.56-1.09-2.72,1.06c-.25.1-.43,0-.54-.28s0-.48.2-.57l2.71-1.06,4.1-5.2c.17-.22.29-.38.42-.43s.27,0,.38.31a.59.59,0,0,1-.12.72L658,296.89Z" transform="translate(-183.84 -211.93)"/>
      <path class="cls-4" d="M664.73,316.66c1.49.12,2.36,1.4,2.2,3.21a4,4,0,0,1-.81,2.19c-.23.31-.41.44-.58.43a.46.46,0,0,1-.41-.44c0-.13.17-.3.31-.48a3.43,3.43,0,0,0,.68-1.78c.11-1.29-.48-2.13-1.41-2.21-2.3-.19-2.13,4.87-5.31,4.6-1.71-.14-2.58-1.65-2.43-3.47a4.07,4.07,0,0,1,1-2.41c.24-.26.44-.41.6-.4a.47.47,0,0,1,.41.46c0,.14-.12.23-.37.53a3.2,3.2,0,0,0-.81,1.9c-.11,1.31.52,2.36,1.63,2.46,2.5.2,2.3-4.84,5.31-4.59" transform="translate(-183.84 -211.93)"/>
      <path class="cls-4" d="M663.16,335.74c-1,2.59-3.56,3.55-6.37,2.43s-4-3.56-2.93-6.15,3.55-3.52,6.35-2.4,4,3.55,2.95,6.12m-8.56-3.42c-.82,2.05.19,4,2.55,4.95s4.45.22,5.26-1.82-.19-4-2.55-4.95-4.44-.22-5.26,1.82" transform="translate(-183.84 -211.93)"/>
      <path class="cls-4" d="M646.49,346a.41.41,0,0,1-.64-.51l2.57-3.27a.42.42,0,0,1,.69-.08l6.95,5.48c.21.16.22.36,0,.61s-.38.27-.59.1l-6.69-5.27Z" transform="translate(-183.84 -211.93)"/>
      <path class="cls-4" d="M637.92,355.25a4.11,4.11,0,0,0,.71,1.4l3.32,4.51c.16.21.11.41-.12.58a.38.38,0,0,1-.59-.06l-3.31-4.5a5.1,5.1,0,0,1-.9-1.79,3.79,3.79,0,0,1,5.34-3.93,5.33,5.33,0,0,1,1.42,1.4l3.31,4.5c.16.22.12.41-.13.6s-.44.16-.6-.06l-3.31-4.51a4.08,4.08,0,0,0-1.12-1.09,2.77,2.77,0,0,0-4,2.95" transform="translate(-183.84 -211.93)"/>
      <path class="cls-4" d="M626.38,358.78c-.09-.25,0-.43.31-.53s.47,0,.56.23l2.83,8,2.76-1a.41.41,0,0,1,.27.77l-6.39,2.25a.35.35,0,0,1-.51-.24.36.36,0,0,1,.24-.53l2.76-1Z" transform="translate(-183.84 -211.93)"/>
      <path class="cls-4" d="M616,361c0-.27.11-.42.4-.45s.48.08.51.35l1,8.95c0,.27-.1.42-.41.45s-.46-.08-.49-.35Z" transform="translate(-183.84 -211.93)"/>
      <path class="cls-4" d="M603.41,370.19c-2.75-.41-4.27-2.65-3.83-5.63s2.54-4.69,5.29-4.28,4.25,2.64,3.81,5.62-2.52,4.69-5.27,4.29m1.34-9.12c-2.17-.32-3.84,1.11-4.21,3.63s.81,4.37,3,4.69,3.85-1.11,4.22-3.63-.81-4.37-3-4.69" transform="translate(-183.84 -211.93)"/>
      <path class="cls-4" d="M593.22,357.59a.36.36,0,0,1,.56-.16c.27.13.34.32.22.56l-4,7.92c-.16.32-.41.38-.75.21a.88.88,0,0,1-.5-.82l-1.12-9.48L584,363c-.12.24-.31.29-.58.16a.38.38,0,0,1-.2-.56l4-7.92a.46.46,0,0,1,.71-.23.88.88,0,0,1,.46.83l1.16,9.57Z" transform="translate(-183.84 -211.93)"/>
      <path class="cls-4" d="M577,355.71c-1,1.09-2.57,1-3.89-.28a4,4,0,0,1-1.2-2c-.1-.37-.09-.6,0-.73a.46.46,0,0,1,.6,0c.1.09.12.32.18.54a3.4,3.4,0,0,0,1,1.65c.94.88,2,.95,2.61.27,1.59-1.68-2.48-4.7-.28-7,1.18-1.24,2.9-1,4.23.27a4.13,4.13,0,0,1,1.26,2.28c.06.35,0,.6-.06.72a.47.47,0,0,1-.61,0c-.11-.11-.1-.24-.19-.63a3.16,3.16,0,0,0-1-1.82c-.94-.91-2.16-1.07-2.93-.26-1.72,1.82,2.35,4.82.27,7" transform="translate(-183.84 -211.93)"/>
      <g class="cls-5">
        <g class="cls-6">
          <path class="cls-7" d="M566.1,353.86c-30.11,0-49-15.86-65.58-29.85-14.86-12.51-26.6-22.37-45.33-22-32.26.65-51.45,49.25-51.63,49.74L370,339.25c1.09-2.94,27.29-71.94,84.51-73.09,32.28-.65,52.7,16.58,69.14,30.42,14.23,12,25.47,21.43,42.5,21.43,32.75,0,41.8-39.61,41.89-40l35,7.67c-5.16,23.59-27.89,68.19-76.91,68.19" transform="translate(-183.84 -211.93)"/>
        </g>
      </g>
    </g>
  </g>
</svg>
